<?xml version="1.0" encoding="UTF-8"?>
<svg id="Layer_2" data-name="Layer 2" xmlns="http://www.w3.org/2000/svg" viewBox="0 0 800 638.89">
  <defs>
    <style>
      .cls-1 {
        fill: #fff3e6;
      }

      .cls-2 {
        fill: #666;
      }

      .cls-3 {
        fill: none;
        stroke: #000;
        stroke-miterlimit: 10;
        stroke-width: 10px;
      }
    </style>
  </defs>
  <g id="Layer_1-2" data-name="Layer 1">
    <path class="cls-2" d="M783.5,111.56c0,46.39-33.23,85.02-77.2,93.39-24.19-59.98-60.33-100.65-106.74-127.19,13.62-35.82,48.27-61.26,88.88-61.26,52.51,0,95.06,42.55,95.06,95.06Z"/>
    <path class="cls-1" d="M200.45,77.76c53.67-30.67,121.03-42.44,199.55-43.29,78.52.85,145.9,12.63,199.57,43.29,46.41,26.54,82.55,67.21,106.74,127.19,13.91,34.46,23.87,75.27,29.57,123.46,30.05,253.77-148.55,292.73-335.88,293.95-187.33-1.22-365.93-40.19-335.88-293.95,5.7-48.16,15.65-88.96,29.54-123.4,24.19-60.03,60.35-100.72,106.79-127.25ZM399.44,510.45c20.06-.06,36.3-16.34,36.3-36.4s-16.3-21.43-36.42-21.43-36.4,1.32-36.4,21.43,16.29,36.4,36.4,36.4h.11ZM659.16,349.29c0-50.28-40.75-91.03-91.03-91.03s-91.01,40.75-91.01,91.03,40.75,91.03,91.01,91.03c50.28,0,91.03-40.75,91.03-91.03ZM322.88,349.29c0-50.28-40.75-91.03-91.01-91.03s-91.03,40.75-91.03,91.03,40.75,91.03,91.03,91.03c50.26,0,91.01-40.75,91.01-91.03Z"/>
    <path class="cls-2" d="M568.13,258.26c50.28,0,91.03,40.75,91.03,91.03s-40.75,91.03-91.03,91.03-91.01-40.75-91.01-91.03,40.75-91.03,91.01-91.03Z"/>
    <path class="cls-2" d="M435.74,474.05c0,20.06-16.24,36.33-36.3,36.4h-.11c-20.11,0-36.4-16.3-36.4-36.4s16.29-21.43,36.4-21.43c20.11,0,36.42,1.32,36.42,21.43Z"/>
    <path class="cls-3" d="M435.74,474.05c0,20.06-16.24,36.33-36.3,36.4h-.11c-20.11,0-36.4-16.3-36.4-36.4s16.29-21.43,36.4-21.43c20.11,0,36.42,1.32,36.42,21.43Z"/>
    <path class="cls-2" d="M231.87,258.26c50.26,0,91.01,40.75,91.01,91.03s-40.75,91.03-91.01,91.03-91.03-40.75-91.03-91.03,40.75-91.03,91.03-91.03Z"/>
    <path class="cls-2" d="M200.45,77.76c-46.44,26.54-82.6,67.22-106.79,127.25l-.32-.13c-43.79-8.5-76.84-47.05-76.84-93.33,0-52.51,42.55-95.06,95.06-95.06,40.6,0,75.25,25.46,88.89,61.27Z"/>
    <path d="M688.45,0c-39.79,0-76.49,21.6-96.27,55.23-13.98-6.81-28.98-12.71-44.84-17.58-8.71-2.67-17.93,2.22-20.61,10.93-2.67,8.71,2.22,17.93,10.93,20.61,19.6,6.01,37.68,13.72,53.73,22.89,45.15,25.82,77.74,64.76,99.63,119.05,13.5,33.43,23.08,73.54,28.49,119.22,10.29,86.93-3.69,150.7-42.76,194.96-61.96,70.18-180.42,79.93-276.72,80.56-96.32-.63-214.79-10.37-276.75-80.56-39.07-44.26-53.06-108.03-42.76-194.96,5.41-45.67,14.98-85.77,28.46-119.17,21.89-54.33,54.5-93.28,99.67-119.1,47.48-27.13,108.3-40.2,191.37-41.12,15.6.17,30.62.79,44.65,1.85.42.03.84.05,1.25.05,8.55,0,15.78-6.6,16.43-15.26.68-9.08-6.13-17-15.21-17.68-11.09-.83-22.76-1.41-34.8-1.72-.94-.17-1.9-.27-2.9-.27h-18.86c-1.01,0-2,.11-2.96.28-74.51,1.9-132.41,13.78-179.79,37C188.01,21.59,151.32,0,111.55,0,50.04,0,0,50.05,0,111.56c0,46.9,29.36,88.17,72,104.34-11.23,32.33-19.38,69.42-24.26,110.58-11.3,95.44,5.79,169.69,50.79,220.67,68.03,77.07,188.85,90.14,289.9,91.59.7.09,1.41.15,2.13.15,3.15,0,6.29-.02,9.44-.03,3.13.02,6.27.03,9.42.03.72,0,1.43-.06,2.13-.15,101.03-1.45,221.87-14.52,289.9-91.59,45.01-50.98,62.1-125.23,50.79-220.67-4.87-41.14-13.02-78.23-24.26-110.57,42.66-16.15,72-57.39,72-104.34C800,50.05,749.96,0,688.45,0ZM32.99,111.56c0-43.32,35.24-78.57,78.57-78.57,27.85,0,53.57,15.03,67.58,38.48-41.36,26.98-72.59,64.41-94.93,113.76-30.3-11.24-51.21-40.45-51.21-73.68ZM715.8,185.23c-22.35-49.34-53.57-86.77-94.92-113.76,13.99-23.45,39.7-38.48,67.57-38.48,43.32,0,78.57,35.24,78.57,78.57,0,33.26-20.9,62.44-51.21,73.67Z"/>
    <path d="M505.9,27.49c-3.03-.57-6.08-1.12-9.15-1.64-8.98-1.51-17.49,4.53-19.01,13.51-1.52,8.98,4.53,17.49,13.51,19.01,2.85.48,5.68.99,8.49,1.52,1.04.2,2.08.29,3.1.29,7.77,0,14.68-5.51,16.19-13.42,1.7-8.95-4.17-17.58-13.12-19.28Z"/>
    <path d="M231.87,241.77c-59.29,0-107.52,48.24-107.52,107.53s48.23,107.53,107.52,107.53,107.51-48.24,107.51-107.53-48.23-107.53-107.51-107.53ZM231.87,423.83c-41.1,0-74.53-33.44-74.53-74.54s33.44-74.54,74.53-74.54,74.52,33.44,74.52,74.54-33.43,74.54-74.52,74.54Z"/>
    <path d="M231.87,303.75c-25.11,0-45.53,20.43-45.53,45.53,0,9.11,7.39,16.5,16.5,16.5s16.5-7.39,16.5-16.5c0-6.92,5.63-12.55,12.55-12.55s12.55,5.63,12.55,12.55c0,9.11,7.39,16.5,16.5,16.5s16.5-7.39,16.5-16.5c0-25.11-20.43-45.53-45.54-45.53Z"/>
    <path d="M568.13,456.82c59.29,0,107.52-48.24,107.52-107.53s-48.23-107.53-107.52-107.53-107.51,48.24-107.51,107.53,48.23,107.53,107.51,107.53ZM568.13,274.76c41.1,0,74.53,33.44,74.53,74.54s-33.44,74.54-74.53,74.54-74.52-33.44-74.52-74.54,33.43-74.54,74.52-74.54Z"/>
    <path d="M539.09,365.79c9.11,0,16.5-7.39,16.5-16.5,0-6.92,5.63-12.55,12.55-12.55s12.55,5.63,12.55,12.55c0,9.11,7.39,16.5,16.5,16.5s16.5-7.39,16.5-16.5c0-25.11-20.43-45.53-45.53-45.53s-45.54,20.43-45.54,45.53c0,9.11,7.39,16.5,16.49,16.5Z"/>
  </g>
</svg>